<mxfile host="65bd71144e">
    <diagram id="4Wt6cMc5iHGh654JGqLU" name="Page-1">
        <mxGraphModel dx="1394" dy="688" grid="1" gridSize="10" guides="1" tooltips="1" connect="1" arrows="1" fold="1" page="1" pageScale="1" pageWidth="850" pageHeight="1100" math="0" shadow="0">
            <root>
                <mxCell id="0"/>
                <mxCell id="1" parent="0"/>
                <mxCell id="HF74sSIFnwCj_txnP_qN-1" value="start menu&lt;br&gt;Displays 3 choices" style="ellipse;whiteSpace=wrap;html=1;" parent="1" vertex="1">
                    <mxGeometry x="340" y="890" width="200" height="140" as="geometry"/>
                </mxCell>
                <mxCell id="HF74sSIFnwCj_txnP_qN-2" value="" style="shape=flexArrow;endArrow=classic;html=1;rounded=0;" parent="1" edge="1">
                    <mxGeometry width="50" height="50" relative="1" as="geometry">
                        <mxPoint x="435" y="890" as="sourcePoint"/>
                        <mxPoint x="435" y="830" as="targetPoint"/>
                    </mxGeometry>
                </mxCell>
                <mxCell id="HF74sSIFnwCj_txnP_qN-4" value="ask if they want single char lookup or 2" style="rounded=0;whiteSpace=wrap;html=1;" parent="1" vertex="1">
                    <mxGeometry x="365" y="760" width="165" height="60" as="geometry"/>
                </mxCell>
                <mxCell id="HF74sSIFnwCj_txnP_qN-5" value="" style="shape=flexArrow;endArrow=classic;html=1;rounded=0;" parent="1" edge="1">
                    <mxGeometry width="50" height="50" relative="1" as="geometry">
                        <mxPoint x="365" y="750" as="sourcePoint"/>
                        <mxPoint x="310" y="700" as="targetPoint"/>
                    </mxGeometry>
                </mxCell>
                <mxCell id="HF74sSIFnwCj_txnP_qN-6" value="1 character" style="ellipse;whiteSpace=wrap;html=1;" parent="1" vertex="1">
                    <mxGeometry x="190" y="610" width="120" height="80" as="geometry"/>
                </mxCell>
                <mxCell id="HF74sSIFnwCj_txnP_qN-7" value="2 char" style="ellipse;whiteSpace=wrap;html=1;" parent="1" vertex="1">
                    <mxGeometry x="570" y="610" width="120" height="80" as="geometry"/>
                </mxCell>
                <mxCell id="HF74sSIFnwCj_txnP_qN-8" value="" style="shape=flexArrow;endArrow=classic;html=1;rounded=0;" parent="1" edge="1">
                    <mxGeometry width="50" height="50" relative="1" as="geometry">
                        <mxPoint x="530" y="760" as="sourcePoint"/>
                        <mxPoint x="580" y="710" as="targetPoint"/>
                    </mxGeometry>
                </mxCell>
                <mxCell id="HF74sSIFnwCj_txnP_qN-12" value="" style="endArrow=classic;html=1;rounded=0;" parent="1" source="HF74sSIFnwCj_txnP_qN-6" edge="1">
                    <mxGeometry width="50" height="50" relative="1" as="geometry">
                        <mxPoint x="190" y="600" as="sourcePoint"/>
                        <mxPoint x="240" y="550" as="targetPoint"/>
                    </mxGeometry>
                </mxCell>
                <mxCell id="HF74sSIFnwCj_txnP_qN-13" value="ask to choice&lt;br&gt;p,k.s.hs" style="shape=cube;whiteSpace=wrap;html=1;boundedLbl=1;backgroundOutline=1;darkOpacity=0.05;darkOpacity2=0.1;" parent="1" vertex="1">
                    <mxGeometry x="180" y="470" width="120" height="80" as="geometry"/>
                </mxCell>
                <mxCell id="HF74sSIFnwCj_txnP_qN-14" value="ask 2 to choice&lt;br&gt;p,k.s.hs" style="shape=cube;whiteSpace=wrap;html=1;boundedLbl=1;backgroundOutline=1;darkOpacity=0.05;darkOpacity2=0.1;" parent="1" vertex="1">
                    <mxGeometry x="570" y="480" width="120" height="80" as="geometry"/>
                </mxCell>
                <mxCell id="HF74sSIFnwCj_txnP_qN-15" value="" style="endArrow=classic;html=1;rounded=0;exitX=0.583;exitY=0.013;exitDx=0;exitDy=0;exitPerimeter=0;" parent="1" source="HF74sSIFnwCj_txnP_qN-7" target="HF74sSIFnwCj_txnP_qN-14" edge="1">
                    <mxGeometry width="50" height="50" relative="1" as="geometry">
                        <mxPoint x="610" y="610" as="sourcePoint"/>
                        <mxPoint x="660" y="560" as="targetPoint"/>
                    </mxGeometry>
                </mxCell>
                <mxCell id="HF74sSIFnwCj_txnP_qN-16" value="classes of the input" style="shape=cylinder3;whiteSpace=wrap;html=1;boundedLbl=1;backgroundOutline=1;size=15;" parent="1" vertex="1">
                    <mxGeometry x="410" y="480" width="60" height="80" as="geometry"/>
                </mxCell>
                <mxCell id="HF74sSIFnwCj_txnP_qN-17" value="" style="shape=flexArrow;endArrow=classic;startArrow=classic;html=1;rounded=0;" parent="1" edge="1">
                    <mxGeometry width="100" height="100" relative="1" as="geometry">
                        <mxPoint x="270" y="470" as="sourcePoint"/>
                        <mxPoint x="370" y="370" as="targetPoint"/>
                    </mxGeometry>
                </mxCell>
                <mxCell id="HF74sSIFnwCj_txnP_qN-18" value="" style="shape=flexArrow;endArrow=classic;startArrow=classic;html=1;rounded=0;" parent="1" edge="1">
                    <mxGeometry width="100" height="100" relative="1" as="geometry">
                        <mxPoint x="560" y="480" as="sourcePoint"/>
                        <mxPoint x="470" y="390" as="targetPoint"/>
                        <Array as="points">
                            <mxPoint x="560" y="440"/>
                            <mxPoint x="530" y="440"/>
                        </Array>
                    </mxGeometry>
                </mxCell>
                <mxCell id="HF74sSIFnwCj_txnP_qN-19" value="Display frame data" style="shape=parallelogram;perimeter=parallelogramPerimeter;whiteSpace=wrap;html=1;fixedSize=1;" parent="1" vertex="1">
                    <mxGeometry x="365" y="290" width="120" height="60" as="geometry"/>
                </mxCell>
                <mxCell id="HF74sSIFnwCj_txnP_qN-21" value="" style="endArrow=classic;startArrow=classic;html=1;rounded=0;" parent="1" edge="1">
                    <mxGeometry width="50" height="50" relative="1" as="geometry">
                        <mxPoint x="410" y="280" as="sourcePoint"/>
                        <mxPoint x="410" y="210" as="targetPoint"/>
                    </mxGeometry>
                </mxCell>
                <mxCell id="HF74sSIFnwCj_txnP_qN-22" value="restart program" style="shape=hexagon;perimeter=hexagonPerimeter2;whiteSpace=wrap;html=1;fixedSize=1;" parent="1" vertex="1">
                    <mxGeometry x="360" y="120" width="120" height="80" as="geometry"/>
                </mxCell>
            </root>
        </mxGraphModel>
    </diagram>
    <diagram id="rXo4nw7t6MW2xWb9i2Z7" name="Page-2">
        <mxGraphModel dx="1394" dy="688" grid="1" gridSize="10" guides="1" tooltips="1" connect="1" arrows="1" fold="1" page="1" pageScale="1" pageWidth="850" pageHeight="1100" math="0" shadow="0">
            <root>
                <mxCell id="x24Ns4oppGxUfPECAX8E-0"/>
                <mxCell id="x24Ns4oppGxUfPECAX8E-1" parent="x24Ns4oppGxUfPECAX8E-0"/>
                <mxCell id="p-CLx9MN4SMqvp3WwEWk-0" value="user chooses 1 or 2 characters" style="ellipse;whiteSpace=wrap;html=1;" parent="x24Ns4oppGxUfPECAX8E-1" vertex="1">
                    <mxGeometry x="380" y="970" width="120" height="80" as="geometry"/>
                </mxCell>
                <mxCell id="p-CLx9MN4SMqvp3WwEWk-1" value="" style="shape=flexArrow;endArrow=classic;startArrow=classic;html=1;exitX=1;exitY=0;exitDx=0;exitDy=0;" parent="x24Ns4oppGxUfPECAX8E-1" source="p-CLx9MN4SMqvp3WwEWk-0" edge="1">
                    <mxGeometry width="100" height="100" relative="1" as="geometry">
                        <mxPoint x="370" y="810" as="sourcePoint"/>
                        <mxPoint x="580" y="870" as="targetPoint"/>
                        <Array as="points"/>
                    </mxGeometry>
                </mxCell>
                <mxCell id="p-CLx9MN4SMqvp3WwEWk-8" value="1" style="ellipse;whiteSpace=wrap;html=1;aspect=fixed;" parent="x24Ns4oppGxUfPECAX8E-1" vertex="1">
                    <mxGeometry x="550" y="780" width="80" height="80" as="geometry"/>
                </mxCell>
                <mxCell id="p-CLx9MN4SMqvp3WwEWk-9" value="2" style="ellipse;whiteSpace=wrap;html=1;aspect=fixed;" parent="x24Ns4oppGxUfPECAX8E-1" vertex="1">
                    <mxGeometry x="650" y="780" width="80" height="80" as="geometry"/>
                </mxCell>
                <mxCell id="p-CLx9MN4SMqvp3WwEWk-10" value="" style="shape=flexArrow;endArrow=classic;html=1;" parent="x24Ns4oppGxUfPECAX8E-1" source="p-CLx9MN4SMqvp3WwEWk-0" edge="1">
                    <mxGeometry width="50" height="50" relative="1" as="geometry">
                        <mxPoint x="320" y="970" as="sourcePoint"/>
                        <mxPoint x="300" y="850" as="targetPoint"/>
                    </mxGeometry>
                </mxCell>
                <mxCell id="p-CLx9MN4SMqvp3WwEWk-11" value="1 character" style="ellipse;whiteSpace=wrap;html=1;aspect=fixed;" parent="x24Ns4oppGxUfPECAX8E-1" vertex="1">
                    <mxGeometry x="220" y="770" width="80" height="80" as="geometry"/>
                </mxCell>
                <mxCell id="p-CLx9MN4SMqvp3WwEWk-12" value="" style="shape=flexArrow;endArrow=classic;startArrow=classic;html=1;" parent="x24Ns4oppGxUfPECAX8E-1" edge="1">
                    <mxGeometry width="100" height="100" relative="1" as="geometry">
                        <mxPoint x="320" y="780" as="sourcePoint"/>
                        <mxPoint x="380" y="720" as="targetPoint"/>
                    </mxGeometry>
                </mxCell>
                <mxCell id="p-CLx9MN4SMqvp3WwEWk-13" value="" style="shape=flexArrow;endArrow=classic;html=1;exitX=0.25;exitY=0;exitDx=0;exitDy=0;exitPerimeter=0;" parent="x24Ns4oppGxUfPECAX8E-1" source="p-CLx9MN4SMqvp3WwEWk-8" edge="1">
                    <mxGeometry width="50" height="50" relative="1" as="geometry">
                        <mxPoint x="560" y="770" as="sourcePoint"/>
                        <mxPoint x="490" y="720" as="targetPoint"/>
                    </mxGeometry>
                </mxCell>
                <mxCell id="p-CLx9MN4SMqvp3WwEWk-14" value="have a menu where the user can select from different ways to&lt;br&gt;use the frame data" style="shape=hexagon;perimeter=hexagonPerimeter2;whiteSpace=wrap;html=1;fixedSize=1;" parent="x24Ns4oppGxUfPECAX8E-1" vertex="1">
                    <mxGeometry x="365" y="630" width="120" height="80" as="geometry"/>
                </mxCell>
                <mxCell id="p-CLx9MN4SMqvp3WwEWk-15" value="" style="shape=flexArrow;endArrow=classic;html=1;" parent="x24Ns4oppGxUfPECAX8E-1" edge="1">
                    <mxGeometry width="50" height="50" relative="1" as="geometry">
                        <mxPoint x="400" y="610" as="sourcePoint"/>
                        <mxPoint x="400" y="530" as="targetPoint"/>
                    </mxGeometry>
                </mxCell>
                <mxCell id="p-CLx9MN4SMqvp3WwEWk-16" value="Frame Data" style="shape=cylinder3;whiteSpace=wrap;html=1;boundedLbl=1;backgroundOutline=1;size=15;" parent="x24Ns4oppGxUfPECAX8E-1" vertex="1">
                    <mxGeometry x="380" y="430" width="60" height="80" as="geometry"/>
                </mxCell>
                <mxCell id="p-CLx9MN4SMqvp3WwEWk-17" value="" style="shape=flexArrow;endArrow=classic;html=1;" parent="x24Ns4oppGxUfPECAX8E-1" edge="1">
                    <mxGeometry width="50" height="50" relative="1" as="geometry">
                        <mxPoint x="390" y="410" as="sourcePoint"/>
                        <mxPoint x="390" y="330" as="targetPoint"/>
                    </mxGeometry>
                </mxCell>
                <mxCell id="p-CLx9MN4SMqvp3WwEWk-18" value="ask if the would like to go back to main menu&amp;nbsp;&lt;br&gt;or exit&lt;br&gt;" style="rhombus;whiteSpace=wrap;html=1;" parent="x24Ns4oppGxUfPECAX8E-1" vertex="1">
                    <mxGeometry x="320" y="190" width="150" height="130" as="geometry"/>
                </mxCell>
                <mxCell id="p-CLx9MN4SMqvp3WwEWk-19" value="" style="curved=1;endArrow=classic;html=1;entryX=0.38;entryY=0.972;entryDx=0;entryDy=0;entryPerimeter=0;" parent="x24Ns4oppGxUfPECAX8E-1" source="p-CLx9MN4SMqvp3WwEWk-18" target="p-CLx9MN4SMqvp3WwEWk-0" edge="1">
                    <mxGeometry width="50" height="50" relative="1" as="geometry">
                        <mxPoint x="60" y="740" as="sourcePoint"/>
                        <mxPoint x="450" y="1160" as="targetPoint"/>
                        <Array as="points">
                            <mxPoint x="130" y="930"/>
                            <mxPoint x="310" y="1000"/>
                            <mxPoint x="350" y="1030"/>
                            <mxPoint x="370" y="1030"/>
                            <mxPoint x="380" y="1048"/>
                        </Array>
                    </mxGeometry>
                </mxCell>
            </root>
        </mxGraphModel>
    </diagram>
</mxfile>